PathFileType	3	(X/Y/Z)	D:\VICON_DB\Goncalves\Pilot01\09-03-2026\static_01.trc
DataRate	CameraRate	NumFrames	NumMarkers	Units	OrigDataRate	OrigDataStartFrame	OrigNumFrames
200.0	200.0	7	40	mm	200.0	41	321
Frame#	Time	LASI			RASI			LPSI			RPSI			LTHI			LTHAP			LTHAD			LKNE			LKNM			LTIB			LTIAP			LTIAD			LANK			LMED			LHEE			LTOE			LFMH			LSMH			LVMH			RTHI			RTHAP			RTHAD			RKNE			RKNM			RTIB			RTIAP			RTIAD			RANK			RMED			RHEE			RTOE			RFMH			RSMH			RVMH			RHJC			LHJC			RKJC			LKJC			RAJC			LAJC
		X1	Y1	Z1	X2	Y2	Z2	X3	Y3	Z3	X4	Y4	Z4	X5	Y5	Z5	X6	Y6	Z6	X7	Y7	Z7	X8	Y8	Z8	X9	Y9	Z9	X10	Y10	Z10	X11	Y11	Z11	X12	Y12	Z12	X13	Y13	Z13	X14	Y14	Z14	X15	Y15	Z15	X16	Y16	Z16	X17	Y17	Z17	X18	Y18	Z18	X19	Y19	Z19	X20	Y20	Z20	X21	Y21	Z21	X22	Y22	Z22	X23	Y23	Z23	X24	Y24	Z24	X25	Y25	Z25	X26	Y26	Z26	X27	Y27	Z27	X28	Y28	Z28	X29	Y29	Z29	X30	Y30	Z30	X31	Y31	Z31	X32	Y32	Z32	X33	Y33	Z33	X34	Y34	Z34	X35	Y35	Z35	X36	Y36	Z36	X37	Y37	Z37	X38	Y38	Z38	X39	Y39	Z39	X40	Y40	Z40
41	0.200000	119.166550	903.670650	-1066.683200	115.463640	905.189510	-1332.266100	307.495000	959.971070	-1175.210000	309.825900	954.556580	-1232.173200	125.369090	694.188110	-1034.634300	143.056290	767.914610	-1021.254000	169.111740	630.132930	-1010.184500	221.204380	474.771510	-1026.216300	198.432220	464.412410	-1154.202900	258.332520	281.706210	-1005.523900	201.102020	357.118590	-1061.472300	216.561110	254.858400	-1033.482700	272.596680	70.464546	-1027.593100	239.597690	80.871300	-1108.077100	314.963680	61.780884	-1080.796300	191.430420	71.935074	-1047.529700	134.043460	44.852055	-1073.240800	133.756350	39.293224	-1032.949800	149.179180	25.723038	-993.076290	160.187820	626.489560	-1383.810700	123.540340	752.598750	-1360.554300	107.674910	660.751040	-1337.895000	208.804400	490.736240	-1366.664200	206.789490	434.643520	-1246.242400	228.102100	296.230960	-1384.559600	188.962810	346.606570	-1329.710900	194.139430	265.307890	-1332.257600	269.153470	61.761620	-1356.102200	232.915500	90.880714	-1275.698400	305.182220	57.828362	-1314.413600	176.737720	69.084267	-1340.671300	126.264730	49.414463	-1315.379200	123.955600	40.569347	-1351.482400	139.971770	20.289255	-1388.861800	195.556354	832.967586	-1295.937316	198.203813	831.881651	-1106.054260	207.796945	462.689880	-1306.453300	209.818300	469.591960	-1090.209600	251.034485	76.321167	-1315.900300	256.097185	75.667923	-1067.835100
42	0.205000	119.208600	903.678650	-1066.703500	115.616060	905.192200	-1332.254200	308.279020	960.211060	-1174.319900	309.917690	954.588010	-1232.139200	125.386210	694.192500	-1034.657700	143.061940	767.926760	-1021.285900	169.134370	630.126830	-1010.190000	221.221340	474.769870	-1026.224100	198.438550	464.410740	-1154.222500	258.333340	281.699430	-1005.521200	201.124080	357.133640	-1061.488600	216.572130	254.853240	-1033.487700	272.820160	70.485634	-1027.386800	239.372450	80.888161	-1108.264400	314.970030	61.759193	-1080.768100	191.309480	71.892624	-1047.672500	134.053820	44.857063	-1073.231900	133.759460	39.294342	-1032.956400	149.180710	25.724287	-993.065860	160.268600	626.503850	-1383.819700	123.632630	752.616390	-1360.583500	107.762070	660.777340	-1337.918600	208.860140	490.720340	-1366.674700	206.864900	434.609380	-1246.237800	228.205180	296.230990	-1384.506500	188.972520	346.632290	-1329.751100	194.151430	265.327670	-1332.276600	269.165530	61.757240	-1356.095700	232.957810	90.849678	-1275.725800	305.195800	57.829739	-1314.387800	176.746510	69.071869	-1340.606900	126.311910	49.403141	-1315.361200	123.964200	40.557510	-1351.489500	139.946720	20.326298	-1388.892500	195.786932	833.019020	-1295.897605	198.355506	831.936871	-1106.035715	207.862520	462.664860	-1306.456250	209.829945	469.590305	-1090.223300	251.061670	76.303459	-1315.910750	256.096305	75.686898	-1067.825600
43	0.210000	119.258180	903.676820	-1066.737200	115.753400	905.166380	-1332.220600	307.756990	959.986080	-1174.960000	309.987880	954.574460	-1232.122900	125.404860	694.187810	-1034.669700	143.090930	767.912960	-1021.294500	169.132550	630.130550	-1010.206000	221.235500	474.767270	-1026.233400	198.448810	464.415190	-1154.230100	258.354920	281.694890	-1005.514000	201.130490	357.139010	-1061.426900	216.586840	254.853230	-1033.477400	272.501310	70.545486	-1027.543500	239.591260	80.854500	-1108.065200	314.976040	61.749363	-1080.754900	191.236570	71.908249	-1047.704700	134.040590	44.854691	-1073.236000	133.759170	39.298809	-1032.960600	149.163220	25.715052	-993.076230	160.338970	626.508970	-1383.822900	123.780510	752.503720	-1360.590300	107.847720	660.784240	-1337.934200	208.946170	490.731630	-1366.675300	206.925490	434.592190	-1246.232400	228.234950	296.219700	-1384.490800	189.024510	346.625850	-1329.752800	194.117220	265.322200	-1332.262100	269.168790	61.761238	-1356.079700	232.875380	90.880844	-1275.679600	305.191830	57.830494	-1314.389500	176.752110	69.079514	-1340.683300	126.297310	49.416935	-1315.369400	123.857770	40.508743	-1351.510400	139.965190	20.285299	-1388.857300	195.823481	832.987537	-1295.841909	198.329358	831.922519	-1106.024367	207.935830	462.661910	-1306.453850	209.842155	469.591230	-1090.231750	251.022085	76.321041	-1315.879650	256.046285	75.699993	-1067.804350
44	0.215000	119.289230	903.678590	-1066.752300	115.839380	905.215150	-1332.264200	307.659000	959.973080	-1175.260000	310.091220	954.537960	-1232.098000	125.428390	694.182370	-1034.676900	143.113570	767.912960	-1021.303300	169.144700	630.120850	-1010.220900	221.254650	474.767460	-1026.237500	198.472990	464.416930	-1154.228500	258.371920	281.699680	-1005.505800	201.170670	357.134310	-1061.464200	216.600110	254.840260	-1033.482200	272.794980	70.503746	-1027.389800	239.365370	80.878983	-1108.272100	314.984830	61.740295	-1080.744300	191.265230	71.867271	-1047.694600	134.052020	44.846031	-1073.227500	133.753270	39.283810	-1032.966300	149.167070	25.706802	-993.077390	160.415330	626.517400	-1383.842300	123.872970	752.494200	-1360.583900	107.907430	660.785580	-1337.972800	208.968750	490.759670	-1366.687500	206.866650	434.625430	-1246.252400	228.271070	296.234680	-1384.491600	189.052600	346.638730	-1329.755700	194.207730	265.302190	-1332.282100	269.174930	61.764866	-1356.096600	232.874950	90.885788	-1275.697400	305.185700	57.829208	-1314.393700	176.736080	69.031906	-1340.675800	126.279040	49.421913	-1315.405200	123.853470	40.511772	-1351.503100	139.945600	20.280096	-1388.876600	195.876394	833.003481	-1295.876621	198.342977	831.904867	-1106.040244	207.917700	462.692550	-1306.469950	209.863820	469.592195	-1090.233000	251.024940	76.325327	-1315.897000	256.080175	75.691365	-1067.830950
45	0.220000	119.324020	903.687870	-1066.776600	115.947360	905.212400	-1332.277600	307.380040	959.971070	-1176.010000	310.165160	954.539370	-1232.099200	125.458840	694.175900	-1034.685300	143.144260	767.896850	-1021.328100	169.159710	630.121150	-1010.221100	221.285450	474.766020	-1026.212200	198.504930	464.410830	-1154.234100	258.378080	281.683900	-1005.506000	201.190400	357.117610	-1061.477700	216.605590	254.844540	-1033.486200	272.864230	70.557350	-1027.457400	239.378020	80.859192	-1108.259600	314.980470	61.724648	-1080.728600	191.265030	71.876190	-1047.693400	134.052550	44.838734	-1073.233200	133.742660	39.286114	-1032.957300	149.179440	25.689142	-993.082950	160.477310	626.519650	-1383.865500	123.967210	752.534730	-1360.605300	107.975040	660.804500	-1337.987400	209.042280	490.721890	-1366.686200	206.907490	434.630550	-1246.250000	228.278790	296.233520	-1384.507400	189.071730	346.633730	-1329.762000	194.158910	265.320860	-1332.282100	269.166930	61.780777	-1356.105600	232.872960	90.897202	-1275.686400	305.175540	57.832989	-1314.395300	176.757160	69.049042	-1340.665900	126.494050	49.384697	-1315.164700	123.956470	40.546898	-1351.484000	139.994600	20.184942	-1388.862200	195.950601	833.011468	-1295.866423	198.364862	831.921451	-1106.037184	207.974885	462.676220	-1306.468100	209.895190	469.588425	-1090.223150	251.019945	76.338989	-1315.896000	256.121125	75.708271	-1067.858500
46	0.225000	119.370510	903.676330	-1066.786900	116.024040	905.252750	-1332.331700	307.228000	959.818050	-1175.900100	310.256350	954.537410	-1232.057100	125.488640	694.174070	-1034.683600	143.161710	767.899900	-1021.328200	169.186580	630.123780	-1010.224100	221.326490	474.754330	-1026.205400	198.507680	464.416990	-1154.258900	258.385310	281.690950	-1005.493300	201.191440	357.123930	-1061.424700	216.624790	254.843080	-1033.476000	272.566620	70.488564	-1027.566800	239.397190	80.837746	-1108.245700	314.983860	61.734184	-1080.714600	191.273790	71.885666	-1047.673800	134.070940	44.832527	-1073.219000	133.746020	39.277126	-1032.943700	149.172150	25.680174	-993.089170	160.540500	626.522160	-1383.862800	124.071100	752.541020	-1360.602800	108.037100	660.802610	-1338.015700	209.066360	490.743900	-1366.704800	207.005130	434.570680	-1246.239600	228.303070	296.236540	-1384.508700	189.098220	346.635930	-1329.755900	194.275860	265.298160	-1332.282700	269.162200	61.764027	-1356.095300	232.860570	90.899895	-1275.676100	305.177920	57.810295	-1314.384200	176.761670	69.033142	-1340.698600	126.336330	49.393036	-1315.331500	123.955040	40.533974	-1351.488200	139.958860	20.254869	-1388.895300	195.976622	832.998956	-1295.917555	198.369268	831.871853	-1106.059403	208.035745	462.657290	-1306.472200	209.917085	469.585660	-1090.232150	251.011385	76.331961	-1315.885700	255.981905	75.663155	-1067.906250
47	0.230000	119.412680	903.696040	-1066.795700	116.111560	905.258180	-1332.360700	307.350010	959.807070	-1175.920200	310.314240	954.534420	-1232.050800	125.502680	694.189030	-1034.699500	143.190000	767.893310	-1021.346300	169.213230	630.108700	-1010.235300	221.340180	474.763060	-1026.199300	198.560170	464.418670	-1154.248900	258.422550	281.679810	-1005.490200	201.250530	357.121150	-1061.457400	216.643460	254.846390	-1033.462900	272.626680	70.424225	-1027.547900	239.398930	80.840126	-1108.247300	314.989720	61.703545	-1080.697300	191.292760	71.867493	-1047.680800	134.073460	44.834110	-1073.230800	133.745560	39.266571	-1032.962000	149.174530	25.673162	-993.085940	160.639430	626.510010	-1383.862200	124.154740	752.547550	-1360.640900	107.992920	660.861880	-1338.200000	209.129990	490.723970	-1366.669200	206.920500	434.624330	-1246.249000	228.303180	296.242800	-1384.546400	189.151230	346.660890	-1329.745000	194.263580	265.311160	-1332.311900	269.154360	61.755463	-1356.118400	232.872180	90.897423	-1275.693000	305.181150	57.816578	-1314.382200	176.762730	69.032181	-1340.659200	126.343700	49.399231	-1315.336800	123.959960	40.537346	-1351.488900	139.710340	20.409386	-1389.168000	196.054644	832.991757	-1295.925634	198.414852	831.874871	-1106.054114	208.025245	462.674150	-1306.459100	209.950175	469.590865	-1090.224100	251.013270	76.326443	-1315.905700	256.012805	75.632176	-1067.897600
